<svg xmlns="http://www.w3.org/2000/svg" viewBox="0 0 128 128" role="img" aria-label="ScholarMind">
  <defs>
    <radialGradient id="g" cx="38%" cy="30%" r="78%">
      <stop offset="0%" stop-color="#fff4b8"/>
      <stop offset="38%" stop-color="#69e8ee"/>
      <stop offset="72%" stop-color="#ff8f70"/>
      <stop offset="100%" stop-color="#182136"/>
    </radialGradient>
    <linearGradient id="ring" x1="16" x2="112" y1="94" y2="34">
      <stop stop-color="#ffb169"/>
      <stop offset="0.5" stop-color="#6be9f0"/>
      <stop offset="1" stop-color="#fb7c6f"/>
    </linearGradient>
  </defs>
  <rect width="128" height="128" rx="32" fill="#0d1324"/>
  <circle cx="64" cy="64" r="47" fill="url(#g)"/>
  <path d="M35 69c-7-22 8-43 29-43 21 0 36 21 29 43-2 7-8 10-14 8-5 9-22 12-30 1-6 2-12-2-14-9Z" fill="#13213a" opacity=".82"/>
  <path d="M43 60c3-13 14-21 27-19m-24 36c8 10 28 8 35-3M52 48c6 1 10 5 12 10m11-10c-6 3-9 8-8 15m-19 3c8-4 19-3 28 3" fill="none" stroke="#eefdff" stroke-linecap="round" stroke-width="5"/>
  <path d="M18 82c24 29 72 33 94-12" fill="none" stroke="url(#ring)" stroke-linecap="round" stroke-width="7" opacity=".95"/>
  <circle cx="103" cy="70" r="8" fill="#fff6b7"/>
</svg>
